<svg id="svg" version="1.1" xmlns="http://www.w3.org/2000/svg" xmlns:xlink="http://www.w3.org/1999/xlink" width="400" height="100.24813895781638" viewBox="0, 0, 400,100.24813895781638"><g id="svgg"><path id="path0" d="M221.958 5.454 C 222.256 5.491,222.744 5.491,223.042 5.454 C 223.340 5.417,223.096 5.387,222.500 5.387 C 221.904 5.387,221.660 5.417,221.958 5.454 M98.333 20.474 L 98.417 33.083 112.250 33.085 L 126.083 33.086 112.292 33.042 L 98.500 32.998 98.500 20.509 C 98.500 13.640,98.444 7.985,98.375 7.942 C 98.306 7.900,98.287 13.539,98.333 20.474 M126.243 8.042 C 126.200 8.156,126.183 13.837,126.207 20.667 L 126.250 33.083 126.333 20.458 C 126.379 13.515,126.396 7.833,126.370 7.833 C 126.344 7.833,126.287 7.927,126.243 8.042 M221.713 8.289 C 222.152 8.324,222.827 8.323,223.213 8.288 C 223.600 8.254,223.242 8.225,222.417 8.226 C 221.592 8.226,221.275 8.255,221.713 8.289 M136.248 37.833 C 136.248 54.104,136.268 60.760,136.292 52.625 C 136.316 44.490,136.316 31.177,136.292 23.042 C 136.268 14.906,136.248 21.563,136.248 37.833 M187.373 21.607 C 187.337 33.505,187.359 34.808,187.597 34.899 C 187.742 34.954,191.889 35.000,196.814 35.000 C 205.811 35.000,206.167 34.979,206.167 34.435 C 206.167 34.344,206.073 34.397,205.958 34.553 C 205.766 34.815,205.058 34.834,196.667 34.794 L 187.583 34.750 187.498 21.583 L 187.414 8.417 187.373 21.607 M193.578 19.000 C 193.578 24.821,193.599 27.202,193.625 24.292 C 193.650 21.381,193.650 16.619,193.625 13.708 C 193.599 10.798,193.578 13.179,193.578 19.000 M165.246 21.667 C 165.246 28.863,165.267 31.806,165.292 28.208 C 165.317 24.610,165.317 18.723,165.292 15.125 C 165.267 11.527,165.246 14.471,165.246 21.667 M142.079 21.750 C 142.079 28.900,142.100 31.801,142.125 28.196 C 142.150 24.591,142.150 18.741,142.125 15.196 C 142.100 11.651,142.079 14.600,142.079 21.750 M233.660 9.875 C 234.350 10.611,234.500 10.743,234.500 10.618 C 234.500 10.591,234.144 10.235,233.708 9.826 L 232.917 9.083 233.660 9.875 M231.660 11.875 C 232.068 12.310,232.425 12.667,232.451 12.667 C 232.577 12.667,232.444 12.517,231.708 11.826 L 230.917 11.083 231.660 11.875 M154.673 13.625 C 151.330 13.650,148.540 13.726,148.473 13.794 C 148.405 13.861,151.100 13.896,154.462 13.871 C 158.147 13.843,160.639 13.761,160.737 13.663 C 160.827 13.573,160.866 13.518,160.825 13.540 C 160.784 13.561,158.015 13.600,154.673 13.625 M207.389 18.667 C 207.389 19.354,207.419 19.635,207.455 19.292 C 207.491 18.948,207.491 18.385,207.455 18.042 C 207.419 17.698,207.389 17.979,207.389 18.667 M217.539 18.667 C 217.539 18.987,217.573 19.119,217.615 18.958 C 217.657 18.798,217.657 18.535,217.615 18.375 C 217.573 18.215,217.539 18.346,217.539 18.667 M234.709 18.750 C 234.711 19.117,234.745 19.247,234.785 19.040 C 234.824 18.832,234.823 18.532,234.781 18.373 C 234.739 18.214,234.707 18.383,234.709 18.750 M231.742 25.375 L 231.083 26.083 231.792 25.425 C 232.181 25.062,232.500 24.743,232.500 24.716 C 232.500 24.590,232.355 24.716,231.742 25.375 M212.667 25.052 C 212.667 25.081,212.910 25.325,213.208 25.594 L 213.750 26.083 213.260 25.542 C 212.804 25.037,212.667 24.923,212.667 25.052 M233.240 27.875 L 232.750 28.417 233.292 27.927 C 233.797 27.471,233.910 27.333,233.781 27.333 C 233.752 27.333,233.509 27.577,233.240 27.875 M148.471 29.538 C 148.630 29.696,160.833 29.786,160.833 29.629 C 160.833 29.562,158.025 29.487,154.592 29.462 C 151.159 29.437,148.404 29.471,148.471 29.538 M177.704 29.624 L 183.825 29.671 183.877 32.169 L 183.930 34.667 183.923 32.125 L 183.917 29.583 177.750 29.580 L 171.583 29.577 177.704 29.624 M196.886 29.625 C 198.611 29.652,201.386 29.652,203.053 29.625 C 204.719 29.598,203.308 29.575,199.917 29.575 C 196.525 29.575,195.161 29.598,196.886 29.625 M221.132 31.957 C 221.708 31.990,222.608 31.989,223.132 31.956 C 223.655 31.923,223.183 31.897,222.083 31.897 C 220.983 31.897,220.555 31.924,221.132 31.957 M151.500 34.833 L 142.250 34.921 151.448 34.960 C 157.444 34.986,160.683 34.942,160.750 34.833 C 160.807 34.742,160.830 34.684,160.802 34.706 C 160.773 34.728,156.587 34.785,151.500 34.833 M170.042 34.958 C 172.585 34.984,176.748 34.984,179.292 34.958 C 181.835 34.932,179.754 34.911,174.667 34.911 C 169.579 34.911,167.498 34.932,170.042 34.958 M252.417 38.167 C 252.348 38.277,234.675 38.333,199.937 38.333 C 163.040 38.333,147.269 38.387,146.572 38.514 C 143.724 39.034,141.437 41.177,140.760 43.959 C 140.431 45.308,140.300 95.183,140.625 95.291 C 140.740 95.330,140.833 95.487,140.833 95.641 C 140.833 96.301,142.801 98.689,143.542 98.928 C 143.702 98.980,143.833 99.084,143.833 99.160 C 143.833 99.235,144.039 99.349,144.290 99.412 C 144.541 99.475,144.801 99.614,144.867 99.722 C 145.078 100.062,303.788 99.997,304.333 99.656 C 304.563 99.513,304.993 99.250,305.291 99.073 C 305.588 98.895,305.832 98.694,305.832 98.625 C 305.833 98.556,305.927 98.499,306.042 98.497 C 306.263 98.494,307.000 97.788,307.000 97.579 C 307.000 97.511,307.179 97.289,307.397 97.087 C 307.616 96.884,307.851 96.538,307.920 96.318 C 307.989 96.097,308.108 95.876,308.185 95.826 C 308.261 95.777,308.371 95.439,308.427 95.076 C 308.484 94.714,308.599 94.392,308.682 94.361 C 308.769 94.329,308.833 91.420,308.833 87.486 L 308.833 80.667 313.167 80.667 C 315.792 80.667,317.500 80.729,317.500 80.825 C 317.500 81.210,329.579 80.950,329.634 80.564 C 329.676 80.269,329.574 80.195,329.009 80.104 C 328.637 80.045,328.333 79.930,328.333 79.850 C 328.333 79.770,328.071 79.655,327.750 79.594 C 327.429 79.534,327.167 79.417,327.167 79.333 C 327.167 79.250,326.904 79.133,326.583 79.072 C 326.262 79.012,326.000 78.896,326.000 78.815 C 326.000 78.733,325.906 78.666,325.792 78.666 C 325.677 78.665,325.382 78.560,325.136 78.431 C 324.890 78.303,324.459 78.148,324.178 78.086 C 323.897 78.024,323.667 77.908,323.667 77.828 C 323.667 77.747,323.404 77.633,323.083 77.572 C 322.762 77.512,322.500 77.397,322.500 77.317 C 322.500 77.236,322.200 77.123,321.833 77.064 C 321.467 77.005,321.167 76.892,321.167 76.812 C 321.167 76.732,321.088 76.667,320.991 76.667 C 320.792 76.667,319.474 76.109,318.808 75.743 C 318.564 75.609,318.245 75.500,318.099 75.500 C 317.952 75.500,317.552 75.350,317.210 75.167 C 316.868 74.983,316.456 74.833,316.294 74.833 C 316.132 74.833,316.000 74.762,316.000 74.674 C 316.000 74.587,315.737 74.466,315.417 74.406 C 315.096 74.345,314.833 74.230,314.833 74.148 C 314.833 74.067,314.740 74.000,314.625 73.999 C 314.510 73.998,314.215 73.893,313.970 73.765 C 313.724 73.636,313.292 73.481,313.011 73.419 C 312.730 73.357,312.500 73.246,312.500 73.172 C 312.500 73.098,312.237 72.988,311.917 72.928 C 311.596 72.867,311.333 72.748,311.333 72.661 C 311.333 72.575,311.035 72.456,310.670 72.398 C 310.305 72.339,310.042 72.234,310.085 72.164 C 310.128 72.094,309.909 71.989,309.598 71.930 C 308.792 71.779,308.833 72.553,308.833 57.653 C 308.833 49.828,308.770 44.000,308.686 44.000 C 308.604 44.000,308.487 43.663,308.425 43.250 C 308.364 42.837,308.251 42.500,308.175 42.500 C 308.098 42.500,307.987 42.306,307.928 42.069 C 307.869 41.832,307.635 41.467,307.410 41.258 C 307.184 41.049,306.999 40.812,306.997 40.731 C 306.993 40.523,306.241 39.833,306.018 39.833 C 305.917 39.833,305.833 39.777,305.832 39.708 C 305.831 39.592,305.348 39.269,304.333 38.706 C 304.104 38.579,303.560 38.433,303.125 38.381 C 302.690 38.329,302.333 38.222,302.333 38.143 C 302.333 37.934,252.546 37.957,252.417 38.167 M98.412 42.541 C 98.279 42.897,98.242 67.806,98.375 67.724 C 98.444 67.682,98.500 61.989,98.500 55.073 L 98.500 42.500 112.332 42.500 L 126.165 42.500 126.209 55.125 L 126.253 67.750 126.252 55.083 L 126.250 42.417 112.370 42.374 C 101.354 42.340,98.474 42.375,98.412 42.541 M301.266 51.042 C 301.217 51.431,301.135 52.837,301.083 54.167 C 300.996 56.372,300.811 60.287,300.325 70.167 C 300.228 72.137,300.118 73.844,300.080 73.958 C 300.028 74.115,299.245 74.167,296.922 74.167 L 293.833 74.167 293.833 73.680 C 293.833 73.412,293.760 72.081,293.669 70.722 C 293.579 69.362,293.427 66.637,293.332 64.667 C 293.236 62.696,293.049 59.021,292.914 56.500 C 292.780 53.979,292.670 51.560,292.669 51.125 L 292.667 50.333 297.010 50.333 L 301.354 50.333 301.266 51.042 M161.793 58.710 L 161.837 65.670 169.096 65.627 L 176.355 65.583 176.339 58.728 C 176.325 52.567,176.350 51.862,176.592 51.770 C 176.914 51.646,184.043 51.630,184.361 51.752 C 184.545 51.822,184.576 54.883,184.544 69.294 L 184.505 86.750 180.461 86.750 L 176.417 86.750 176.379 79.917 C 176.359 76.158,176.340 72.989,176.338 72.873 C 176.334 72.707,174.834 72.672,169.125 72.707 L 161.917 72.750 161.873 79.795 L 161.830 86.839 157.790 86.795 L 153.750 86.750 153.708 69.344 C 153.674 55.529,153.708 51.910,153.874 51.803 C 153.989 51.729,155.808 51.687,157.917 51.709 L 161.750 51.750 161.793 58.710 M215.962 51.806 C 216.124 51.909,216.163 52.716,216.129 55.262 L 216.083 58.583 207.944 58.667 L 199.805 58.750 199.817 62.000 C 199.823 63.788,199.829 65.305,199.831 65.373 C 199.832 65.441,202.965 65.516,206.792 65.540 L 213.750 65.583 213.750 69.000 L 213.750 72.417 206.778 72.500 L 199.807 72.583 199.818 76.083 C 199.824 78.008,199.830 79.639,199.831 79.707 C 199.832 79.775,203.490 79.850,207.958 79.873 L 216.083 79.917 216.083 83.333 L 216.083 86.750 203.833 86.750 L 191.583 86.750 191.541 69.344 C 191.507 55.529,191.542 51.910,191.708 51.805 C 191.983 51.630,215.687 51.632,215.962 51.806 M230.293 65.792 L 230.335 79.833 238.504 79.833 L 246.673 79.833 246.628 83.292 L 246.583 86.750 234.377 86.793 L 222.170 86.835 222.127 69.409 C 222.099 58.343,222.142 51.924,222.245 51.822 C 222.342 51.725,223.960 51.678,226.328 51.705 L 230.250 51.750 230.293 65.792 M269.582 52.225 C 283.306 55.879,283.138 71.208,269.333 74.940 C 268.482 75.170,267.303 75.253,263.833 75.325 L 259.417 75.417 259.373 81.125 L 259.329 86.833 255.248 86.833 L 251.167 86.833 251.167 69.347 C 251.167 55.519,251.210 51.842,251.375 51.768 C 251.490 51.717,255.258 51.699,259.750 51.728 L 267.917 51.781 269.582 52.225 M259.444 58.778 C 259.383 58.839,259.333 61.020,259.333 63.624 L 259.333 68.360 263.292 68.298 C 268.055 68.225,268.615 68.079,270.195 66.498 C 273.156 63.537,271.149 59.444,266.437 58.831 C 265.070 58.654,259.610 58.612,259.444 58.778 M299.121 79.140 C 303.594 81.441,302.038 87.844,297.009 87.830 C 292.808 87.817,290.655 83.118,293.473 80.110 C 294.794 78.700,297.396 78.253,299.121 79.140 " stroke="none" fill="#fcac24" fill-rule="evenodd"></path><path id="path1" d="M220.167 5.611 C 207.984 7.527,203.133 20.606,211.917 27.851 L 212.750 28.538 212.833 31.876 C 212.941 36.177,212.580 36.014,216.853 33.689 L 220.264 31.833 222.174 31.832 C 230.792 31.826,237.495 26.067,237.495 18.667 C 237.495 10.697,228.917 4.234,220.167 5.611 M88.542 7.942 C 88.376 8.010,88.333 14.148,88.333 37.844 L 88.333 67.660 88.708 67.752 C 88.915 67.802,91.146 67.823,93.667 67.797 L 98.250 67.750 98.333 55.083 L 98.417 42.417 112.333 42.417 L 126.250 42.417 126.293 55.125 L 126.335 67.833 131.251 67.833 C 133.955 67.833,136.167 67.777,136.167 67.708 C 136.167 67.640,136.168 54.158,136.169 37.750 L 136.170 7.917 131.293 7.917 L 126.417 7.917 126.374 20.455 L 126.331 32.994 125.957 33.085 C 125.752 33.134,119.471 33.154,112.000 33.129 L 98.417 33.083 98.333 20.500 L 98.250 7.917 93.500 7.887 C 90.888 7.870,88.656 7.895,88.542 7.942 M225.667 8.562 C 239.315 12.030,236.900 28.540,222.683 28.960 L 219.950 29.040 217.874 30.020 C 216.732 30.559,215.771 31.000,215.738 31.000 C 215.705 31.000,215.657 30.196,215.631 29.214 L 215.583 27.429 214.863 26.945 C 212.152 25.126,210.409 22.209,210.216 19.167 C 209.775 12.233,217.972 6.607,225.667 8.562 M142.167 21.667 L 142.167 34.836 151.458 34.793 L 160.750 34.750 160.750 32.250 L 160.750 29.750 154.583 29.667 L 148.417 29.583 148.371 26.875 L 148.325 24.167 153.399 24.167 C 159.700 24.167,159.000 24.513,159.000 21.399 L 159.000 18.833 153.662 18.833 L 148.325 18.833 148.371 16.292 L 148.417 13.750 154.583 13.667 L 160.750 13.583 160.750 11.083 L 160.750 8.583 151.458 8.540 L 142.167 8.497 142.167 21.667 M165.333 21.667 L 165.333 34.833 174.583 34.833 L 183.833 34.833 183.833 32.252 L 183.833 29.671 177.708 29.627 L 171.583 29.583 171.540 19.042 L 171.498 8.500 168.415 8.500 L 165.333 8.500 165.333 21.667 M187.541 21.625 L 187.583 34.750 196.750 34.750 L 205.917 34.750 205.963 32.208 L 206.009 29.667 200.018 29.667 C 196.723 29.667,193.909 29.621,193.764 29.566 C 193.527 29.475,193.500 28.387,193.500 18.982 L 193.500 8.500 190.499 8.500 L 187.498 8.500 187.541 21.625 M214.250 16.567 C 212.724 17.241,212.419 19.342,213.693 20.413 C 215.423 21.869,217.874 20.368,217.430 18.125 C 217.160 16.764,215.569 15.985,214.250 16.567 M221.417 16.634 C 220.257 17.373,219.860 18.566,220.403 19.685 C 221.403 21.743,224.491 21.190,224.771 18.902 C 224.986 17.144,222.866 15.710,221.417 16.634 M228.724 16.591 C 227.466 17.142,227.010 18.846,227.816 19.977 C 229.139 21.832,232.000 20.940,232.000 18.673 C 232.000 16.954,230.325 15.889,228.724 16.591 " stroke="none" fill="#050505" fill-rule="evenodd"></path><path id="path2" d="M86.750 0.319 C 85.757 0.675,85.333 0.880,85.333 1.005 C 85.333 1.082,85.198 1.187,85.033 1.240 C 84.616 1.372,83.333 2.629,83.333 2.905 C 83.333 3.029,83.221 3.174,83.083 3.227 C 82.946 3.280,82.833 3.438,82.833 3.578 C 82.833 3.718,82.766 3.833,82.685 3.833 C 82.603 3.833,82.485 4.039,82.422 4.290 C 82.358 4.541,82.219 4.801,82.112 4.867 C 81.966 4.957,81.905 8.538,81.870 19.077 L 81.823 33.167 72.310 33.167 C 63.704 33.167,62.807 33.192,62.899 33.430 C 62.954 33.575,63.000 33.725,63.000 33.764 C 63.000 33.802,63.131 33.833,63.292 33.833 C 63.452 33.834,64.108 34.095,64.750 34.414 C 65.392 34.733,65.992 34.996,66.083 34.998 C 66.175 35.000,66.700 35.226,67.250 35.500 C 67.800 35.774,68.344 35.999,68.458 35.999 C 68.573 36.000,68.667 36.069,68.667 36.153 C 68.667 36.238,68.892 36.356,69.167 36.417 C 69.442 36.477,69.667 36.590,69.667 36.667 C 69.667 36.744,69.892 36.856,70.167 36.917 C 70.442 36.977,70.667 37.090,70.667 37.167 C 70.667 37.244,70.892 37.356,71.167 37.417 C 71.442 37.477,71.667 37.587,71.667 37.661 C 71.667 37.736,71.929 37.845,72.250 37.906 C 72.571 37.966,72.833 38.081,72.833 38.161 C 72.833 38.241,73.058 38.356,73.333 38.417 C 73.608 38.477,73.833 38.590,73.833 38.667 C 73.833 38.744,74.058 38.856,74.333 38.917 C 74.608 38.977,74.833 39.090,74.833 39.167 C 74.833 39.244,75.058 39.356,75.333 39.417 C 75.608 39.477,75.833 39.590,75.833 39.667 C 75.833 39.744,76.073 39.859,76.366 39.924 C 76.658 39.988,77.001 40.144,77.127 40.270 C 77.254 40.397,77.502 40.500,77.679 40.500 C 77.855 40.500,78.000 40.569,78.000 40.653 C 78.000 40.738,78.225 40.856,78.500 40.917 C 78.775 40.977,79.000 41.090,79.000 41.167 C 79.000 41.244,79.225 41.356,79.500 41.417 C 79.775 41.477,80.000 41.596,80.000 41.680 C 80.000 41.764,80.086 41.833,80.190 41.833 C 80.295 41.833,80.705 41.995,81.102 42.194 L 81.823 42.554 81.870 57.200 C 81.905 68.164,81.966 71.876,82.112 71.966 C 82.219 72.032,82.358 72.292,82.422 72.543 C 82.485 72.795,82.603 73.000,82.685 73.000 C 82.766 73.000,82.833 73.111,82.833 73.247 C 82.833 73.569,84.931 75.667,85.253 75.667 C 85.389 75.667,85.500 75.734,85.500 75.815 C 85.500 75.897,85.705 76.015,85.957 76.078 C 86.208 76.142,86.468 76.281,86.534 76.388 C 86.625 76.536,93.232 76.594,113.577 76.627 L 140.500 76.671 140.500 60.787 C 140.500 47.228,140.536 44.763,140.749 43.947 C 141.391 41.483,143.098 39.639,145.583 38.724 C 146.384 38.429,148.465 38.413,199.417 38.333 L 252.417 38.250 252.459 22.042 C 252.483 12.883,252.438 5.833,252.356 5.833 C 252.276 5.833,252.169 5.523,252.118 5.143 C 252.067 4.763,251.955 4.407,251.868 4.351 C 251.782 4.295,251.655 4.070,251.586 3.849 C 251.517 3.628,251.282 3.282,251.064 3.080 C 250.845 2.877,250.667 2.656,250.667 2.588 C 250.667 2.388,249.934 1.673,249.726 1.670 C 249.621 1.668,249.492 1.554,249.440 1.417 C 249.387 1.279,249.229 1.167,249.089 1.167 C 248.948 1.167,248.833 1.106,248.833 1.031 C 248.833 0.957,248.458 0.732,247.998 0.531 L 247.163 0.167 167.123 0.183 C 123.101 0.192,86.933 0.254,86.750 0.319 M224.338 5.507 C 234.424 6.746,240.273 15.819,236.274 24.023 C 233.899 28.894,228.291 32.000,221.872 32.000 L 220.120 32.000 216.892 33.761 C 212.605 36.100,212.928 36.230,212.872 32.139 L 212.826 28.861 211.115 27.139 C 202.105 18.071,210.801 3.844,224.338 5.507 M98.459 20.458 L 98.502 33.000 112.333 33.000 L 126.165 33.000 126.207 20.458 L 126.250 7.917 131.250 7.917 L 136.250 7.917 136.292 37.877 L 136.334 67.838 131.292 67.794 L 126.250 67.750 126.207 55.125 L 126.165 42.500 112.333 42.500 L 98.502 42.500 98.459 55.125 L 98.417 67.750 93.375 67.794 L 88.333 67.838 88.333 37.833 L 88.333 7.828 93.375 7.873 L 98.417 7.917 98.459 20.458 M220.333 8.433 C 209.902 10.312,206.681 21.431,214.978 26.922 L 215.667 27.378 215.667 29.105 C 215.667 30.056,215.734 30.833,215.816 30.833 C 215.898 30.833,216.840 30.421,217.909 29.917 L 219.853 29.000 221.828 29.000 C 233.731 29.000,239.176 17.391,230.364 10.802 C 227.886 8.949,223.378 7.885,220.333 8.433 M160.796 11.125 L 160.750 13.750 154.583 13.833 L 148.417 13.917 148.368 16.000 C 148.342 17.146,148.362 18.252,148.413 18.458 L 148.506 18.833 153.753 18.833 L 159.000 18.833 159.000 21.498 L 159.000 24.162 153.708 24.206 L 148.417 24.250 148.417 26.833 L 148.417 29.417 154.629 29.460 L 160.842 29.504 160.796 32.210 L 160.750 34.917 151.602 34.960 C 144.985 34.991,142.391 34.951,142.227 34.814 C 141.991 34.618,141.868 9.370,142.101 8.764 C 142.192 8.528,143.177 8.500,151.522 8.500 L 160.842 8.500 160.796 11.125 M171.500 18.998 L 171.500 29.496 177.708 29.540 L 183.917 29.583 183.965 31.917 C 183.991 33.200,183.971 34.419,183.920 34.625 L 183.827 35.000 174.697 35.000 C 167.818 35.000,165.517 34.951,165.367 34.800 C 165.149 34.582,165.061 8.828,165.278 8.611 C 165.339 8.550,166.764 8.500,168.444 8.500 L 171.500 8.500 171.500 18.998 M193.667 19.000 L 193.667 29.500 199.833 29.500 C 203.828 29.500,206.003 29.559,206.007 29.667 C 206.065 30.966,206.003 34.694,205.922 34.825 C 205.805 35.014,188.083 35.085,187.597 34.899 C 187.360 34.808,187.333 33.485,187.333 21.649 L 187.333 8.500 190.500 8.500 L 193.667 8.500 193.667 19.000 M216.816 16.983 C 217.871 18.038,217.916 19.201,216.942 20.234 C 215.406 21.863,212.836 20.911,212.834 18.712 C 212.832 16.582,215.330 15.497,216.816 16.983 M223.726 16.650 C 225.405 17.756,225.142 20.203,223.268 20.919 C 221.079 21.755,219.102 19.024,220.563 17.181 C 221.231 16.340,222.845 16.068,223.726 16.650 M231.208 16.842 C 233.364 18.619,231.233 22.047,228.744 20.805 C 226.397 19.635,227.138 16.352,229.754 16.338 C 230.445 16.334,230.698 16.422,231.208 16.842 M292.669 51.125 C 292.670 51.560,292.780 53.979,292.914 56.500 C 293.049 59.021,293.236 62.696,293.332 64.667 C 293.427 66.637,293.579 69.362,293.669 70.722 C 293.760 72.081,293.833 73.412,293.833 73.680 L 293.833 74.167 296.922 74.167 C 299.245 74.167,300.028 74.115,300.080 73.958 C 300.118 73.844,300.228 72.137,300.325 70.167 C 300.811 60.287,300.996 56.372,301.083 54.167 C 301.135 52.837,301.217 51.431,301.266 51.042 L 301.354 50.333 297.010 50.333 L 292.667 50.333 292.669 51.125 M153.874 51.803 C 153.708 51.910,153.674 55.529,153.708 69.344 L 153.750 86.750 157.790 86.795 L 161.830 86.839 161.873 79.795 L 161.917 72.750 169.125 72.707 C 174.834 72.672,176.334 72.707,176.338 72.873 C 176.340 72.989,176.359 76.158,176.379 79.917 L 176.417 86.750 180.461 86.750 L 184.505 86.750 184.544 69.294 C 184.576 54.883,184.545 51.822,184.361 51.752 C 184.043 51.630,176.914 51.646,176.592 51.770 C 176.350 51.862,176.325 52.567,176.339 58.728 L 176.355 65.583 169.096 65.627 L 161.837 65.670 161.793 58.710 L 161.750 51.750 157.917 51.709 C 155.808 51.687,153.989 51.729,153.874 51.803 M191.708 51.805 C 191.542 51.910,191.507 55.529,191.541 69.344 L 191.583 86.750 203.833 86.750 L 216.083 86.750 216.083 83.333 L 216.083 79.917 207.958 79.873 C 203.490 79.850,199.832 79.775,199.831 79.707 C 199.830 79.639,199.824 78.008,199.818 76.083 L 199.807 72.583 206.778 72.500 L 213.750 72.417 213.750 69.000 L 213.750 65.583 206.792 65.540 C 202.965 65.516,199.832 65.441,199.831 65.373 C 199.829 65.305,199.823 63.788,199.817 62.000 L 199.805 58.750 207.944 58.667 L 216.083 58.583 216.129 55.262 C 216.163 52.716,216.124 51.909,215.962 51.806 C 215.687 51.632,191.983 51.630,191.708 51.805 M222.245 51.822 C 222.142 51.924,222.099 58.343,222.127 69.409 L 222.170 86.835 234.377 86.793 L 246.583 86.750 246.628 83.292 L 246.673 79.833 238.504 79.833 L 230.335 79.833 230.293 65.792 L 230.250 51.750 226.328 51.705 C 223.960 51.678,222.342 51.725,222.245 51.822 M251.375 51.768 C 251.210 51.842,251.167 55.519,251.167 69.347 L 251.167 86.833 255.248 86.833 L 259.329 86.833 259.373 81.125 L 259.417 75.417 263.833 75.325 C 267.303 75.253,268.482 75.170,269.333 74.940 C 283.138 71.208,283.306 55.879,269.582 52.225 L 267.917 51.781 259.750 51.728 C 255.258 51.699,251.490 51.717,251.375 51.768 M266.437 58.831 C 271.149 59.444,273.156 63.537,270.195 66.498 C 268.615 68.079,268.055 68.225,263.292 68.298 L 259.333 68.360 259.333 63.624 C 259.333 61.020,259.383 58.839,259.444 58.778 C 259.610 58.612,265.070 58.654,266.437 58.831 M295.417 78.878 C 290.368 80.958,291.587 87.814,297.009 87.830 C 302.038 87.844,303.594 81.441,299.121 79.140 C 298.275 78.705,296.193 78.558,295.417 78.878 " stroke="none" fill="#fbfbfb" fill-rule="evenodd"></path></g></svg>